<?xml version="1.0" encoding="UTF-8" standalone="no"?>
<!-- Created with Inkscape (http://www.inkscape.org/) -->

<svg
   width="300"
   height="300"
   viewBox="0 0 79.375004 79.374996"
   version="1.1"
   id="svg21096"
   inkscape:version="1.1.1 (3bf5ae0d25, 2021-09-20)"
   sodipodi:docname="butterfly-larva.svg"
   xmlns:inkscape="http://www.inkscape.org/namespaces/inkscape"
   xmlns:sodipodi="http://sodipodi.sourceforge.net/DTD/sodipodi-0.dtd"
   xmlns:xlink="http://www.w3.org/1999/xlink"
   xmlns="http://www.w3.org/2000/svg"
   xmlns:svg="http://www.w3.org/2000/svg">
  <sodipodi:namedview
     id="namedview21098"
     pagecolor="#505050"
     bordercolor="#ffffff"
     borderopacity="1"
     inkscape:pageshadow="0"
     inkscape:pageopacity="0"
     inkscape:pagecheckerboard="1"
     inkscape:document-units="mm"
     showgrid="false"
     fit-margin-top="0"
     fit-margin-left="0"
     fit-margin-right="0"
     fit-margin-bottom="0"
     units="px"
     inkscape:zoom="2.1619135"
     inkscape:cx="140.84745"
     inkscape:cy="142.69766"
     inkscape:window-width="1920"
     inkscape:window-height="1017"
     inkscape:window-x="1272"
     inkscape:window-y="-8"
     inkscape:window-maximized="1"
     inkscape:current-layer="layer1"
     inkscape:snap-global="false" />
  <defs
     id="defs21093">
    <linearGradient
       id="linearGradient2328"
       inkscape:swatch="solid">
      <stop
         style="stop-color:#2d2d2d;stop-opacity:1;"
         offset="0"
         id="stop2326" />
    </linearGradient>
    <linearGradient
       id="linearGradient2322"
       inkscape:swatch="solid">
      <stop
         style="stop-color:#2d2d2d;stop-opacity:1;"
         offset="0"
         id="stop2320" />
    </linearGradient>
    <linearGradient
       id="linearGradient2316"
       inkscape:swatch="solid">
      <stop
         style="stop-color:#2d2d2d;stop-opacity:1;"
         offset="0"
         id="stop2314" />
    </linearGradient>
    <linearGradient
       id="linearGradient2310"
       inkscape:swatch="solid">
      <stop
         style="stop-color:#262b57;stop-opacity:1;"
         offset="0"
         id="stop2308" />
    </linearGradient>
  </defs>
  <g
     inkscape:label="Layer 1"
     inkscape:groupmode="layer"
     id="layer1"
     transform="translate(133.88342,-85.894773)">
    <use
       x="0"
       y="0"
       xlink:href="#path64348"
       id="use65759"
       transform="matrix(-0.72045197,0.66906864,-0.66906864,-0.72045197,-82.267891,295.54321)"
       width="100%"
       height="100%"
       style="stroke-width:1.01708"
       inkscape:transform-center-x="6.5150171"
       inkscape:transform-center-y="7.6077827" />
    <use
       x="0"
       y="0"
       xlink:href="#path64348"
       id="use65265"
       transform="matrix(0.65453857,0,0,0.65453857,-35.018562,21.297182)"
       width="100%"
       height="100%"
       style="stroke-width:1.5278"
       inkscape:transform-center-x="-2.3813768"
       inkscape:transform-center-y="-34.775837" />
    <path
       id="path57863"
       d="m -95.204247,109.10089 c 0.126235,-0.61159 -0.799646,-0.5678 -1.188833,-0.51643 -0.425131,0.0562 -1.081117,0.71188 -0.723204,1.42806 0.242137,0.48447 0.435415,0.75883 0.736693,0.72722 0.484789,-0.0509 1.049128,-1.02727 1.175344,-1.63885 z"
       fill="#e2e264"
       stroke="#eca53c"
       stroke-width="2.25252"
       stroke-miterlimit="1"
       inkscape:transform-center-x="-0.15200028"
       inkscape:transform-center-y="-33.919024"
       sodipodi:nodetypes="sssss"
       style="stroke-width:0.736659;stroke-miterlimit:1;stroke-dasharray:none;shape-rendering:geometricPrecision;text-rendering:geometricPrecision" />
    <path
       id="path80592"
       d="m -104.05019,111.29708 c -0.26469,4.17995 -2.44814,7.14598 3.16705,8.34846 5.615118,1.20249 3.222997,-2.79081 3.487631,-6.97078 0.264674,-4.17995 0.477127,-7.5352 -5.138011,-8.73769 -5.61516,-1.20247 -1.25204,3.18004 -1.51669,7.36 z"
       fill="#2c4d90"
       stroke="#253156"
       stroke-width="1.56719"
       stroke-miterlimit="1"
       sodipodi:nodetypes="sssss"
       style="stroke-width:0.801105;stroke-miterlimit:1;stroke-dasharray:none;shape-rendering:geometricPrecision;text-rendering:geometricPrecision"
       inkscape:transform-center-x="0.73593186"
       inkscape:transform-center-y="0.10466362" />
    <use
       x="0"
       y="0"
       xlink:href="#path64348"
       id="use65263"
       transform="matrix(0.62958053,-0.1790226,0.1790226,0.62958053,-70.078268,12.936753)"
       width="100%"
       height="100%"
       style="stroke-width:1.5278"
       inkscape:transform-center-x="3.0243655"
       inkscape:transform-center-y="-0.76437796" />
    <path
       id="path57817"
       d="m -102.04356,112.87428 c -0.62398,0.21163 0.10602,1.21068 0.44145,1.61169 0.36638,0.43805 1.42457,0.78702 1.777209,-0.0203 0.238546,-0.54614 0.331653,-0.91752 0.07909,-1.23264 -0.406439,-0.50704 -1.673769,-0.57046 -2.297729,-0.35878 z"
       fill="#e2e264"
       stroke="#eca53c"
       stroke-width="2.25252"
       stroke-miterlimit="1"
       inkscape:transform-center-x="1.1088072"
       inkscape:transform-center-y="-0.13071773"
       sodipodi:nodetypes="sssss"
       style="stroke-width:0.736659;stroke-miterlimit:1;stroke-dasharray:none;shape-rendering:geometricPrecision;text-rendering:geometricPrecision" />
    <path
       id="path50113"
       d="m -93.50371,120.0659 c 3.218884,0.35083 5.135472,2.4326 5.680782,-3.3077 0.630492,-6.63706 -2.323373,-5.15919 -5.54223,-5.51007 -3.218846,-0.35083 -6.236025,-1.86713 -6.528955,4.78968 -0.247497,5.62419 3.171537,3.67719 6.39039,4.02807 z"
       fill="#2c4d90"
       stroke="#253156"
       stroke-width="0.928501"
       stroke-miterlimit="1"
       sodipodi:nodetypes="sssss"
       style="stroke-width:0.801105;stroke-miterlimit:1.85714;stroke-dasharray:none;shape-rendering:geometricPrecision;text-rendering:geometricPrecision"
       inkscape:transform-center-x="0.025498686"
       inkscape:transform-center-y="0.54285728" />
    <use
       x="0"
       y="0"
       xlink:href="#path64348"
       id="use65747"
       transform="matrix(0.85633076,0.37780688,-0.37780688,0.85633076,50.382587,48.137011)"
       width="100%"
       height="100%"
       style="stroke-width:1.06841"
       inkscape:transform-center-x="-9.4276725"
       inkscape:transform-center-y="2.5880276" />
    <use
       x="0"
       y="0"
       xlink:href="#path64348"
       id="use65257"
       transform="matrix(0.75015768,-0.04634848,0.04634848,0.75015768,-13.645382,11.29588)"
       width="100%"
       height="100%"
       style="stroke-width:1.48447"
       inkscape:transform-center-x="-2.5217356"
       inkscape:transform-center-y="-0.5326879" />
    <path
       id="path57678"
       d="m -75.210777,115.70927 c 0.550337,0.40954 -0.599544,1.33959 -1.10432,1.70133 -0.55144,0.39516 -1.772101,0.50091 -1.804013,-0.50786 -0.02156,-0.68243 0.03424,-1.12763 0.41964,-1.41495 0.620242,-0.46225 1.93831,-0.18808 2.488645,0.22147 z"
       fill="#e2e264"
       stroke="#eca53c"
       stroke-width="2.25252"
       stroke-miterlimit="1"
       inkscape:transform-center-x="-0.60895286"
       inkscape:transform-center-y="0.18124959"
       sodipodi:nodetypes="sssss"
       style="stroke-width:0.736659;stroke-miterlimit:1;stroke-dasharray:none;shape-rendering:geometricPrecision;text-rendering:geometricPrecision" />
    <path
       id="path50111"
       d="m -90.186738,122.00783 c 0.549914,3.94053 -1.37998,6.98581 5.727377,5.63737 6.62809,-1.25751 6.936441,-3.98326 6.034013,-8.43012 -0.790002,-3.89285 -2.252722,-7.57187 -8.817574,-6.14765 -6.905905,1.49822 -3.493699,4.99989 -2.943816,8.9404 z"
       fill="#2c4d90"
       stroke="#253156"
       stroke-width="1.11263"
       stroke-miterlimit="1"
       sodipodi:nodetypes="sssss"
       style="stroke-width:0.829684;stroke-miterlimit:1.85714;stroke-dasharray:none;shape-rendering:geometricPrecision;text-rendering:geometricPrecision"
       inkscape:transform-center-x="0.07234482"
       inkscape:transform-center-y="0.74685113" />
    <use
       x="0"
       y="0"
       xlink:href="#path64348"
       id="use65751"
       transform="matrix(-0.63879499,-0.49046619,0.49046619,-0.63879499,-216.76979,160.29435)"
       width="100%"
       height="100%"
       style="stroke-width:1.24167"
       inkscape:transform-center-x="4.5923006"
       inkscape:transform-center-y="-1.8576503" />
    <use
       x="0"
       y="0"
       xlink:href="#path64348"
       id="use65755"
       transform="matrix(-0.76441881,-0.25353502,0.25353502,-0.76441881,-203.39511,203.51735)"
       width="100%"
       height="100%"
       style="stroke-width:1.24167"
       inkscape:transform-center-x="7.9165696"
       inkscape:transform-center-y="-3.2929414" />
    <use
       x="0"
       y="0"
       xlink:href="#path90240"
       inkscape:transform-center-x="-6.6298666"
       inkscape:transform-center-y="1.7801192"
       id="use65749"
       transform="matrix(0.85633076,0.37780688,-0.37780688,0.85633076,50.504251,48.740108)"
       width="100%"
       height="100%"
       style="stroke-width:1.06841" />
    <use
       x="0"
       y="0"
       xlink:href="#path90240"
       inkscape:transform-center-x="2.206732"
       inkscape:transform-center-y="-0.40471978"
       id="use65753"
       transform="matrix(-0.63879499,-0.49046619,0.49046619,-0.63879499,-216.21137,159.67411)"
       width="100%"
       height="100%"
       style="stroke-width:1.24167" />
    <path
       id="path50109"
       d="m -91.874354,122.75647 c -3.560082,1.57961 -6.907495,0.52556 -3.708833,6.97013 3.698386,7.45134 5.785548,4.08483 9.34564,2.50523 3.56007,-1.57961 7.675394,-1.79569 3.614814,-9.06329 -3.430649,-6.14014 -5.691556,-1.9917 -9.251621,-0.41207 z"
       fill="#2c4d90"
       stroke="#253156"
       stroke-width="1.23086"
       stroke-miterlimit="1"
       sodipodi:nodetypes="sssss"
       style="stroke-width:0.740041;stroke-miterlimit:1.85714;stroke-dasharray:none;shape-rendering:geometricPrecision;text-rendering:geometricPrecision"
       inkscape:transform-center-x="-4.26958"
       inkscape:transform-center-y="-3.4635489" />
    <use
       x="0"
       y="0"
       xlink:href="#path90240"
       inkscape:transform-center-x="4.9967338"
       inkscape:transform-center-y="-2.0159395"
       id="use65757"
       transform="matrix(-0.87604562,-0.33829097,0.21512631,-0.79253081,-208.41157,199.72138)"
       width="100%"
       height="100%"
       style="stroke-width:1.24167" />
    <path
       id="eFnj7eCV8wJ4"
       d="m -100.62272,131.24342 c -2.01047,2.79469 -5.38619,3.3246 1.020053,7.31025 7.407006,4.60833 7.158209,0.95373 9.168696,-1.84096 2.010482,-2.79468 5.276203,-4.69522 -2.321887,-9.00015 -6.419374,-3.63708 -5.856381,0.73618 -7.866862,3.53086 z"
       fill="#2c4d90"
       stroke="#253156"
       stroke-width="1.094"
       stroke-miterlimit="1"
       sodipodi:nodetypes="sssss"
       style="stroke-width:0.801105;stroke-miterlimit:1.85714;stroke-dasharray:none;shape-rendering:geometricPrecision;text-rendering:geometricPrecision"
       inkscape:transform-center-x="0.75726809"
       inkscape:transform-center-y="1.0390531" />
    <ellipse
       style="fill:#000000;fill-opacity:0.351981;stroke-width:0.736659;stroke-linecap:round;stroke-linejoin:round;stroke-miterlimit:1;stroke-dasharray:none;paint-order:fill markers stroke"
       id="path64348"
       cx="132.13326"
       cy="92.323318"
       rx="5.2542429"
       ry="5.5010862"
       inkscape:transform-center-x="-9.6565247"
       inkscape:transform-center-y="12.377595"
       transform="rotate(89.031035)" />
    <use
       x="0"
       y="0"
       xlink:href="#path90240"
       inkscape:transform-center-x="3.770217"
       inkscape:transform-center-y="5.2843008"
       id="use65761"
       transform="matrix(-0.78020888,0.59831263,-0.59831263,-0.78020888,-97.364904,296.46682)"
       width="100%"
       height="100%"
       style="stroke-width:1.01708" />
    <path
       id="path90240"
       d="m -91.256406,132.99215 c 0.523155,-0.71302 -1.325234,-0.95739 -2.116984,-1.01947 -0.864887,-0.0678 -2.4542,0.5289 -2.067905,1.52681 0.261318,0.67509 0.520262,1.07546 1.129529,1.13359 0.980361,0.0935 2.532217,-0.9279 3.05536,-1.64093 z"
       fill="#e2e264"
       stroke="#eca53c"
       stroke-width="2.25252"
       stroke-miterlimit="1"
       inkscape:transform-center-x="-6.0323272"
       inkscape:transform-center-y="2.214678"
       sodipodi:nodetypes="sssss"
       style="stroke-width:0.736659;stroke-miterlimit:1;stroke-dasharray:none;shape-rendering:geometricPrecision;text-rendering:geometricPrecision" />
    <path
       id="eFnj7eCV8wJ2"
       d="m -103.77587,138.03508 c 0.58458,3.40504 0.24757,17.45267 10.510763,13.019 6.011991,-2.59719 4.909624,-7.88761 -0.691741,-16.67799 -1.993434,-3.12838 -10.454112,-0.0405 -9.819022,3.65899 z"
       fill="#2c4d90"
       stroke="#253156"
       stroke-width="4.25672"
       stroke-miterlimit="1"
       style="stroke-width:0.801105;stroke-miterlimit:1.85714;stroke-dasharray:none;shape-rendering:geometricPrecision;text-rendering:geometricPrecision"
       sodipodi:nodetypes="ssss"
       inkscape:transform-center-x="-3.150996"
       inkscape:transform-center-y="8.6166477" />
    <use
       x="0"
       y="0"
       xlink:href="#path64348"
       id="use65261"
       transform="matrix(0.33779418,-0.56063877,0.56063877,0.33779418,-131.06189,14.207453)"
       width="100%"
       height="100%"
       style="stroke-width:1.5278"
       inkscape:transform-center-x="-1.6828977"
       inkscape:transform-center-y="-2.7499361" />
    <path
       id="path57966"
       d="m -87.715654,110.38734 c 0.507169,-0.17581 0.588178,0.98037 0.594032,1.46734 0.0064,0.53196 -0.470796,1.36984 -1.129434,0.94491 -0.445567,-0.2875 -0.705077,-0.52033 -0.716613,-0.89705 -0.01851,-0.6062 0.744755,-1.33942 1.251985,-1.51517 z"
       fill="#e2e264"
       stroke="#eca53c"
       stroke-width="2.25252"
       stroke-miterlimit="1"
       inkscape:transform-center-x="-0.18331387"
       inkscape:transform-center-y="-0.96953453"
       sodipodi:nodetypes="sssss"
       style="stroke-width:0.736659;stroke-miterlimit:1;stroke-dasharray:none;shape-rendering:geometricPrecision;text-rendering:geometricPrecision" />
    <use
       x="0"
       y="0"
       xlink:href="#path64348"
       id="use66042"
       transform="matrix(0.00788388,1.1884476,-1.1884476,0.00788388,65.434371,263.61083)"
       width="100%"
       height="100%"
       style="stroke-width:0.841415"
       inkscape:transform-center-x="-5.5288357"
       inkscape:transform-center-y="23.732636" />
    <use
       x="0"
       y="0"
       xlink:href="#path90240"
       inkscape:transform-center-x="-4.9373775"
       inkscape:transform-center-y="19.291842"
       id="use66044"
       transform="rotate(95.018896,-103.14437,142.56183)"
       width="100%"
       height="100%" />
  </g>
</svg>
